<?xml version="1.0" standalone="no"?>
<!DOCTYPE svg PUBLIC "-//W3C//DTD SVG 20010904//EN"
 "http://www.w3.org/TR/2001/REC-SVG-20010904/DTD/svg10.dtd">
<svg version="1.0" xmlns="http://www.w3.org/2000/svg"
 width="640.000000pt" height="640.000000pt" viewBox="0 0 640.000000 640.000000"
 preserveAspectRatio="xMidYMid meet">
<metadata>
Created by potrace 1.11, written by Peter Selinger 2001-2013
</metadata>
<g transform="translate(0.000000,640.000000) scale(0.100000,-0.100000)"
fill="#000000" stroke="none">
<path d="M2998 6395 c-1 -1 -39 -6 -83 -9 -44 -4 -98 -9 -120 -12 -22 -3 -56
-7 -75 -9 -19 -2 -36 -4 -37 -6 -4 -2 -13 -4 -68 -13 -87 -13 -326 -76 -430
-112 -55 -19 -104 -37 -110 -38 -11 -3 -25 -9 -110 -43 -73 -30 -268 -124
-275 -132 -3 -3 -23 -15 -45 -26 -22 -10 -71 -38 -108 -62 -37 -24 -70 -43
-72 -43 -7 0 -226 -159 -280 -204 -91 -75 -118 -100 -236 -216 -105 -104 -207
-216 -267 -295 -77 -101 -112 -151 -169 -238 -35 -54 -67 -106 -70 -115 -3 -9
-12 -24 -19 -32 -17 -20 -124 -230 -118 -230 3 0 -3 -12 -14 -27 -10 -16 -22
-37 -25 -48 -3 -11 -20 -54 -37 -95 -48 -113 -119 -333 -136 -420 -3 -14 -11
-50 -19 -80 -14 -59 -27 -125 -30 -150 -1 -13 -8 -60 -21 -139 -26 -169 -25
-676 2 -804 2 -12 6 -43 9 -68 2 -25 9 -67 15 -93 5 -25 13 -61 15 -79 3 -17
15 -66 26 -107 11 -41 21 -86 23 -100 4 -31 91 -289 118 -350 35 -81 48 -110
49 -115 2 -9 107 -213 139 -270 83 -149 256 -393 368 -519 47 -52 266 -271
312 -311 121 -106 310 -243 455 -330 78 -47 344 -185 356 -185 4 0 33 -12 65
-27 33 -15 64 -28 69 -29 6 -2 69 -23 140 -48 72 -25 144 -48 160 -51 36 -7
44 -9 70 -18 11 -3 31 -8 45 -11 14 -3 36 -8 50 -11 25 -6 101 -20 155 -30 17
-2 41 -7 55 -10 14 -3 48 -7 75 -10 28 -2 86 -8 130 -12 44 -4 172 -8 285 -8
189 1 249 4 385 20 89 11 110 14 135 19 13 3 40 8 60 11 53 8 69 11 146 31 38
9 76 18 84 19 9 0 21 4 28 9 7 4 25 10 40 12 40 7 265 85 280 96 6 6 12 7 12
4 0 -4 12 0 28 8 15 8 45 22 67 32 112 46 404 200 425 224 3 3 22 14 43 25 20
11 37 22 37 25 0 3 16 14 35 24 19 11 35 23 35 28 0 4 4 8 10 8 5 0 18 6 27
14 10 8 65 52 123 98 103 82 319 290 414 398 165 189 373 510 471 725 15 33
33 74 40 90 29 64 64 153 87 225 48 143 67 205 72 230 3 14 10 45 17 70 17 70
27 121 43 210 3 14 5 25 6 25 1 0 3 16 5 35 2 19 6 53 9 75 28 206 28 662 1
800 -3 17 -7 48 -10 70 -2 22 -4 40 -5 40 -1 0 -3 11 -5 25 -5 45 -25 144 -45
220 -11 41 -23 86 -26 100 -11 52 -47 166 -80 254 -35 93 -39 102 -67 169 -9
20 -17 39 -18 42 -2 9 -107 213 -139 270 -81 145 -250 385 -362 512 -115 131
-340 341 -488 457 -176 136 -441 289 -676 389 -233 100 -554 194 -724 212 -14
2 -25 4 -25 5 0 1 -16 3 -35 5 -19 2 -55 7 -80 11 -25 4 -63 9 -85 11 -52 5
-502 13 -507 8z"/>
</g>
</svg>
