<svg width="340" height="180" xmlns="http://www.w3.org/2000/svg">
 <!-- Created with Method Draw - http://github.com/duopixel/Method-Draw/ -->

 <g>
  <title>background</title>
  <rect x="-1" y="-1" width="342" height="182" id="canvas_background" fill="#f7f7f7"/>
  <g id="canvasGrid" display="none">
   <rect id="svg_5" width="100%" height="100%" x="0" y="0" stroke-width="0" fill="url(#gridpattern)"/>
  </g>
 </g>
 <g>
  <title>Layer 1</title>
  <rect fill="#4c4c4c" stroke-width="1.5" x="159" y="53.98438" width="49" height="32" id="svg_15" stroke="#4c4c4c"/>
  <rect fill="#e5e5e5" stroke-width="1.5" x="-91.00002" y="29.98438" width="283.99999" height="185.00001" id="svg_1" rx="8" stroke="#e5e5e5"/>
  <rect fill="#4c4c4c" stroke-width="1.5" x="-127.99998" y="-47.01562" width="320.99998" height="74" id="svg_2" rx="8" stroke="#4c4c4c"/>
  <rect fill="#ffffff" stroke-width="1.5" x="-145.99999" y="50.98437" width="318.99996" height="140.99999" id="svg_3" rx="8" stroke="#e5e5e5"/>
  <rect fill="#4c4c4c" stroke-width="1.5" x="63" y="72.98438" width="83" height="40" id="svg_4" rx="6" stroke="#4c4c4c"/>
  <text fill="#ffffff" stroke-width="0" x="47.30085" y="74.92531" id="svg_6" font-size="24" font-family="Helvetica, Arial, sans-serif" text-anchor="start" xml:space="preserve" transform="matrix(0.5715809547429801,0,0,0.5568378567695618,72.00991224617313,62.44431574456394) " stroke="#4c4c4c">delete</text>
  <rect fill="#4c4c4c" stroke-width="1.5" x="14" y="73.98438" width="41" height="40" id="svg_7" rx="6" stroke="#4c4c4c"/>
  <text fill="#ffffff" stroke-width="0" x="-71.66742" y="51.5792" id="svg_9" font-size="24" font-family="Helvetica, Arial, sans-serif" text-anchor="start" xml:space="preserve" transform="matrix(0.5715809547429801,0,0,0.5568378567695618,72.00991224617313,62.44431574456394) " stroke="#4c4c4c">+</text>
  <text fill="#ffffff" stroke-width="0" x="-71.66742" y="78.51702" id="svg_10" font-size="24" font-family="Helvetica, Arial, sans-serif" text-anchor="start" xml:space="preserve" transform="matrix(0.5715809547429801,0,0,0.5568378567695618,72.00991224617313,62.44431574456394) " stroke="#4c4c4c">=</text>
  <rect fill="#4c4c4c" stroke-width="1.5" x="202" y="47.98438" width="110" height="46" id="svg_11" rx="4" stroke="#4c4c4c"/>
  <ellipse fill="#ffffff" stroke-width="1.5" cx="296.5" cy="70.48438" id="svg_12" rx="5.5" ry="5.5" stroke="#ffffff"/>
  <ellipse fill="#ffd700" stroke-width="0" cx="239" cy="69.98438" id="svg_14" rx="13" ry="13" stroke="#ffd700"/>
  <rect fill="#ffd700" stroke-width="0" x="194" y="77.98431" width="12" height="4" id="svg_16" stroke="#ffd700"/>
  <rect fill="#ffd700" stroke-width="0" x="194" y="59.98431" width="12" height="4" id="svg_17" stroke="#ffd700"/>
  <rect fill="#ffd700" stroke-width="0" x="194" y="65.98431" width="12" height="4" id="svg_18" stroke="#ffd700"/>
  <rect fill="#ffd700" stroke-width="0" x="194" y="71.98431" width="12" height="4" id="svg_19" stroke="#ffd700"/>
  <rect fill="#4c4c4c" stroke-width="1.5" x="105" y="120.98438" width="41" height="40" id="svg_24" rx="6" stroke="#4c4c4c"/>
  <rect fill="#4c4c4c" stroke-width="1.5" x="56" y="120.98438" width="41" height="40" id="svg_25" rx="6" stroke="#4c4c4c"/>
  <rect fill="#4c4c4c" stroke-width="1.5" x="7" y="120.98438" width="41" height="40" id="svg_26" rx="6" stroke="#4c4c4c"/>
  <text fill="#ffffff" stroke-width="0" x="91.03919" y="135.98438" id="svg_29" font-size="24" font-family="Helvetica, Arial, sans-serif" text-anchor="start" xml:space="preserve" transform="matrix(0.5715809547429801,0,0,0.5568378567695618,72.00991224617313,62.44431574456394) " stroke="#4c4c4c">|</text>
  <text fill="#ffffff" stroke-width="0" x="91.03919" y="162.9222" id="svg_30" font-size="24" font-family="Helvetica, Arial, sans-serif" text-anchor="start" xml:space="preserve" transform="matrix(0.5715809547429801,0,0,0.5568378567695618,72.00991224617313,62.44431574456394) " stroke="#4c4c4c">\</text>
  <text fill="#ffffff" stroke-width="0" x="5.31205" y="134.18852" id="svg_31" font-size="24" font-family="Helvetica, Arial, sans-serif" text-anchor="start" xml:space="preserve" transform="matrix(0.5715809547429801,0,0,0.5568378567695618,72.00991224617313,62.44431574456394) " stroke="#4c4c4c">}</text>
  <text fill="#ffffff" stroke-width="0" x="5.31205" y="161.12635" id="svg_32" font-size="24" font-family="Helvetica, Arial, sans-serif" text-anchor="start" xml:space="preserve" transform="matrix(0.5715809547429801,0,0,0.5568378567695618,72.00991224617313,62.44431574456394) " stroke="#4c4c4c">]</text>
  <text fill="#ffffff" stroke-width="0" x="-80.41509" y="134.18852" id="svg_33" font-size="24" font-family="Helvetica, Arial, sans-serif" text-anchor="start" xml:space="preserve" transform="matrix(0.5715809547429801,0,0,0.5568378567695618,72.00991224617313,62.44431574456394) " stroke="#4c4c4c">{</text>
  <text fill="#ffffff" stroke-width="0" x="-80.41509" y="161.12635" id="svg_34" font-size="24" font-family="Helvetica, Arial, sans-serif" text-anchor="start" xml:space="preserve" transform="matrix(0.5715809547429801,0,0,0.5568378567695618,72.00991224617313,62.44431574456394) " stroke="#4c4c4c">[</text>
  <rect stroke="#e5e5e5" fill="#ffffff" stroke-width="1.5" x="-147.99999" y="-137.01563" width="226.99996" height="56.99998" id="svg_37" rx="8"/>
 </g>
</svg>